<?xml version="1.0" encoding="UTF-8" standalone="no"?>
<!-- The icon can be used freely in both personal and commercial projects with no attribution required, but always appreciated. 
You may NOT sub-license, resell, rent, redistribute or otherwise transfer the icon without express written permission from iconmonstr.com -->

<svg
   xmlns:dc="http://purl.org/dc/elements/1.1/"
   xmlns:cc="http://creativecommons.org/ns#"
   xmlns:rdf="http://www.w3.org/1999/02/22-rdf-syntax-ns#"
   xmlns:svg="http://www.w3.org/2000/svg"
   xmlns="http://www.w3.org/2000/svg"
   xmlns:sodipodi="http://sodipodi.sourceforge.net/DTD/sodipodi-0.dtd"
   xmlns:inkscape="http://www.inkscape.org/namespaces/inkscape"
   version="1.1"
   x="0px"
   y="0px"
   width="512px"
   height="512px"
   viewBox="0 0 512 512"
   enable-background="new 0 0 512 512"
   xml:space="preserve"
   id="svg4504"
   inkscape:version="0.48.4 r9939"
   sodipodi:docname="retweeted_tiny.svg"><metadata
     id="metadata4511"><rdf:RDF><cc:Work
         rdf:about=""><dc:format>image/svg+xml</dc:format><dc:type
           rdf:resource="http://purl.org/dc/dcmitype/StillImage" /><dc:title></dc:title></cc:Work></rdf:RDF></metadata><defs
     id="defs4509" /><sodipodi:namedview
     pagecolor="#ffffff"
     bordercolor="#666666"
     borderopacity="1"
     objecttolerance="10"
     gridtolerance="10"
     guidetolerance="10"
     inkscape:pageopacity="0"
     inkscape:pageshadow="2"
     inkscape:window-width="716"
     inkscape:window-height="480"
     id="namedview4507"
     showgrid="false"
     inkscape:zoom="0.4609375"
     inkscape:cx="282.0339"
     inkscape:cy="234.30508"
     inkscape:window-x="514"
     inkscape:window-y="488"
     inkscape:window-maximized="0"
     inkscape:current-layer="svg4504" /><path
     id="refresh-4-icon"
     d="M372.53,146.186c-75.306-59.495-196.93-9.526-196.93,100.527c0,0.02,0-0.019,0,0h36.396l-81.045,86.137   L50,246.713h35.279c0-0.011,0,0.008,0,0C85.279,109.55,280.102,40.558,372.53,146.186z M139.469,365.813   c75.306,59.495,196.93,9.526,196.93-100.526c0-0.021,0,0.02,0,0h-36.396l81.045-86.138L462,265.287h-35.28c0,0.01,0-0.01,0,0   C426.72,402.449,231.897,471.442,139.469,365.813z"
     style="fill:#cd950c;fill-opacity:1;stroke:#cd950c;stroke-opacity:1" /></svg>